<svg xmlns="http://www.w3.org/2000/svg" xmlns:xlink="http://www.w3.org/1999/xlink" viewBox="0 0 888.11 330.23"><defs><style>.cls-1,.cls-2{fill:none;}.cls-2{stroke:#25262d;stroke-miterlimit:10;stroke-width:12px;}.cls-3{clip-path:url(#clip-path);}.cls-4{clip-path:url(#clip-path-2);}.cls-5{clip-path:url(#clip-path-3);}.cls-6{fill:#e85627;}.cls-7{fill:#ff7a29;}.cls-8{fill:#ff9e38;}.cls-9{fill:#ffc457;}.cls-10{isolation:isolate;}.cls-11{fill:#25262d;}.cls-12{clip-path:url(#clip-path-4);}</style><clipPath id="clip-path" transform="translate(-22.57 -27.77)"><path class="cls-1" d="M166.57,51.57a115,115,0,1,0,115,115A115,115,0,0,0,166.57,51.57Zm0,193a78,78,0,1,1,78-78A78,78,0,0,1,166.57,244.57Z"/></clipPath><clipPath id="clip-path-2" transform="translate(-22.57 -27.77)"><path class="cls-1" d="M166.57,0A166.58,166.58,0,1,0,333.15,166.57,166.58,166.58,0,0,0,166.57,0Zm0,295.57a129,129,0,1,1,129-129A129,129,0,0,1,166.57,295.57Z"/></clipPath><clipPath id="clip-path-3" transform="translate(-22.57 -27.77)"><path class="cls-1" d="M145.76,224.08l11.63,3,30-117-11.63-3Zm55.81-104.83-10,6.65L219,167.07l-27.45,41.18,10,6.65,31.88-47.83Zm-68,0L101.7,167.07l31.88,47.83,10-6.65-27.45-41.18,27.45-41.17Z"/></clipPath><clipPath id="clip-path-4" transform="translate(-22.57 -27.77)"><path class="cls-1" d="M704.39,127.13H690.18q-12.46,0-12.46,11.79v60.3q0,11.92,12.46,11.93h14.21q12.58,0,12.59-11.93V185H704.65v12.73c0,1.6-.24,2.66-.73,3.15s-1.54.73-3.15.73h-6.84a5,5,0,0,1-3.21-.73c-.54-.49-.81-1.55-.81-3.15V140.53q0-2.42.81-3.15a5,5,0,0,1,3.21-.74h6.84c1.61,0,2.66.25,3.15.74s.73,1.54.73,3.15v12.86H717V138.92Q717,127.13,704.39,127.13Zm51.32,0H740.83q-12.58,0-12.59,11.79v60.3q0,11.79,12.59,11.79h14.88q12.46,0,12.46-11.79v-60.3Q768.17,127.13,755.71,127.13Zm.4,70.21c0,1.61-.27,2.66-.8,3.15s-1.61.74-3.22.74h-7.77c-1.61,0-2.66-.24-3.15-.74s-.74-1.54-.74-3.15V140.8c0-1.61.25-2.66.74-3.15s1.54-.74,3.15-.74h7.77a5,5,0,0,1,3.22.74c.53.49.8,1.54.8,3.15Zm54.94-70.21H781.84V211h29.21q12.47,0,12.46-11.79v-60.3Q823.51,127.13,811.05,127.13Zm.27,70.48q0,2.41-.81,3.15a5,5,0,0,1-3.21.74H794V136.64H807.3a5,5,0,0,1,3.21.74q.81.74.81,3.15ZM849,201.23V172.55h19.3v-9.78H849V136.91h23.31v-9.78H836.77V211h36.45v-9.78Z"/></clipPath></defs><g id="Calque_2" data-name="Calque 2"><g id="Calque_1-2" data-name="Calque 1"><circle class="cls-2" cx="144" cy="138.81" r="110"/><g class="cls-3"><line class="cls-2" x1="48" y1="86.71" x2="240" y2="86.71"/><line class="cls-2" x1="34" y1="121.61" x2="254" y2="121.61"/><line class="cls-2" x1="34" y1="156.52" x2="254" y2="156.52"/><line class="cls-2" x1="34" y1="191.42" x2="254" y2="191.42"/><line class="cls-2" x1="48" y1="226.33" x2="240" y2="226.33"/><line class="cls-2" x1="77" y1="51.81" x2="211" y2="51.81"/></g><g class="cls-4"><polyline class="cls-2" points="259.25 94.81 281.5 94.81 281.5 183.81 259.25 183.81"/><polyline class="cls-2" points="27.25 182.81 6 182.81 6 93.81 27.25 93.81"/></g><g class="cls-5"><path class="cls-6" d="M113,172.81a22.08,22.08,0,0,1-3.51-3.32,24.13,24.13,0,0,1-4.59-8.46,23.83,23.83,0,0,1,1.22-17.73c2.34-4.6,6.14-8.34,8.46-12.94s3.1-10.1,4.57-15.2a53.28,53.28,0,0,1,39.6-36.65c7.3-1.5,16.13-.84,20.46,5.24,1.37,1.93,2.18,4.28,3.89,5.92,4,3.79,10.38,2,15.65.51a95.91,95.91,0,0,1,37.94-3.13c5.1.6,10.41,1.73,14.29,5.1,5.39,4.67,6.73,12.9,4.52,19.69a26.56,26.56,0,0,1-4,7.61,10,10,0,0,1-2.44,2.47,5.39,5.39,0,0,0-1.94,2.21c-3.68,7.28-3.77,15.72-6.34,23.37-1.06,3.13-2.65,6.27-5.39,8.12-2.94,2-6.69,2.17-10.11,3.1-6.19,1.68-11.26,5.79-16.11,9.8-2.65,2.18-5.29,4.4-8.13,6.32a38.44,38.44,0,0,1-4.37,2.57c-.76.38-1.55.69-2.32,1a3.28,3.28,0,0,0-.84.57,48,48,0,0,1-5.36,3.57c-4.33,2.64-9.1,4.94-14.17,5.07-7.71.18-15.37-4.65-22.76-2.46-2.44.72-4.6,2.16-7,2.9a8,8,0,0,1-5,0,13.14,13.14,0,0,1-2-1.28,27.66,27.66,0,0,0-2.62-1.08,101.25,101.25,0,0,1-11.2-5.89A119.73,119.73,0,0,1,113,172.81Z" transform="translate(-22.57 -27.77)"/><path class="cls-7" d="M157.46,230.71c-32.16-5.4-60.95-27.82-74.08-57.67A97.29,97.29,0,0,0,100,182.85c-.59-.27-1.24-2-1.53-2.55A24,24,0,0,1,97.12,177,35.75,35.75,0,0,1,96,173c-.22-1-.41-2-.56-3a44.55,44.55,0,0,1-.5-6,45.86,45.86,0,0,1,1.4-11.95,44.49,44.49,0,0,1,4.36-10.95,22.84,22.84,0,0,0,6.62,15.6,10.58,10.58,0,0,1,3.18-8.63,34.7,34.7,0,0,0,3.81,8.36,21.2,21.2,0,0,1,6.56-9.5,32.29,32.29,0,0,0,8,16.36,3.13,3.13,0,0,0,1.37,1c1.07.3,2.1-.53,2.91-1.3L144,152.69c.63-.6,1.45-1.25,2.27-1a2.34,2.34,0,0,1,1.2,1.54,103.42,103.42,0,0,1,4.68,15.39,94,94,0,0,0,15.39-27.42,36.11,36.11,0,0,1,.29,13.27,45.94,45.94,0,0,1,8.47-15.87,15.83,15.83,0,0,0,.38,10.5,27.61,27.61,0,0,1,9.2-7,1.38,1.38,0,0,1,2.23.73c3,6.23,2.3,13.62,4,20.34.25,1,.71,2,1.67,2.22a2.69,2.69,0,0,0,1.85-.6,43,43,0,0,0,13-13.15L212,162.8a19.33,19.33,0,0,0,.79-20.26,20.23,20.23,0,0,1,9.29,12,22.49,22.49,0,0,1,7.14-9.72,4.85,4.85,0,0,0,1.33,5.64l4.43-3.59c.24-.19,2.33,2.94,2.5,3.25a14.54,14.54,0,0,1,1.51,4c.29,1.34.13,2.75.44,4.07,1,4-.35,8.63-1.75,12.41-2.17,5.85-5.67,11.09-9.14,16.28" transform="translate(-22.57 -27.77)"/><path class="cls-8" d="M142.5,244.23a17.31,17.31,0,0,1-3.65-.62,16.81,16.81,0,0,1-8.9-5.88,17.3,17.3,0,0,0-2.86-3.12,19.64,19.64,0,0,1-1.9-1.86L124,231.4c-.18-.19-1-.9-1-1.14-1.44-1.56-3-3.06-4.32-4.75a9,9,0,0,1-1.37-3.14,14.61,14.61,0,0,0-.8-2.08,85.38,85.38,0,0,1-5.2-13.54c-.62-2.27-1.36-4.35-1.86-6.64a46.57,46.57,0,0,0-1.53-5.43,49.14,49.14,0,0,0-4.88-10.15,48.2,48.2,0,0,0-9.4-10.89l7.91,4.39c3.12,1.73,6.43,3.66,7.94,6.89-.66-6.32,2.67-12.3,5.88-17.79a34.25,34.25,0,0,0,9.43,19.78c-.2-.21.75-2.63.86-3,.33-1,.67-2,1-3.05a64.48,64.48,0,0,1,2.52-5.94,19.37,19.37,0,0,1,2.94-5.09c1.3-1.34,2-3.17,3-4.75a42.06,42.06,0,0,1,2.45-3.49,90.3,90.3,0,0,0,11.1,17l.94-15a10.18,10.18,0,0,0,.76,1.05c.51.71,1,1.42,1.49,2.15q1.28,1.89,2.44,3.84c.78,1.3,1.53,2.63,2.24,4a19.13,19.13,0,0,0,1.79,3.49,7.25,7.25,0,0,1,1.15-2.11c.47-.75,1-1.48,1.51-2.19A31.94,31.94,0,0,1,173,164.13c-4.93,5.36-5.25,13.43-4.64,20.69a20.65,20.65,0,0,0,4-14,32.36,32.36,0,0,1,6.53,10.89c-.13-.37,1.06-1.83,1.28-2.14a15.9,15.9,0,0,1,1.71-2,15.74,15.74,0,0,1,4.29-2.92,14.73,14.73,0,0,1,5-1.34,14.18,14.18,0,0,0,2.06,0c.82-.18,1.44-1.17,1.91-1.79l.24-.31c1.71-2.28,3.31-4.91,3.14-7.76a137.14,137.14,0,0,1,7,14.42,18.63,18.63,0,0,0-.83-13.24,55.33,55.33,0,0,1,3.63,5.81c1,1.85,1.75,3.82,2.7,5.69a37,37,0,0,0,.53-5.66,20,20,0,0,0-1.13-5.78,35.55,35.55,0,0,1,8.64,11.49,13.82,13.82,0,0,1,1.39-6.84c.41,2.55,1.87,4.78,3.3,6.93l3,4.47c-.41-.61-.34-2.15-.41-2.87-.09-1-.14-2-.15-3a34.58,34.58,0,0,1,.5-6,38.48,38.48,0,0,1,4.08-11.29c1.1-2.11,4.09-3.69,6.17-4.7a32.29,32.29,0,0,0,2.65,24.08c.73,1.35,2,2.83,3.46,2.52a3.72,3.72,0,0,0,1.43-.75l6.15-4.42a32.3,32.3,0,0,0,2.24,23.44c1,1.89,2.16,3.78,2.27,5.9.19,3.29-2.25,6.16-4.91,8.09-8.95,6.5-20.9,6.36-31.65,9A60.72,60.72,0,0,0,199.32,229c-4.37,2.88-8.38,6.33-13.07,8.64s-10.39,3.35-15.12,1.13c-2.5-1.17-4.88-3.24-7.6-2.84-1.77.26-3.19,1.53-4.6,2.63C154.26,242.24,148.41,244.61,142.5,244.23Z" transform="translate(-22.57 -27.77)"/><path class="cls-9" d="M158.66,295.94c-5.56-.68-10.84-2.78-16-4.89s-10.72-4.45-14.7-8.54c-5.54-5.68-7.44-13.93-8.29-21.82a99.32,99.32,0,0,1-.43-16.81c.16-2.68.44-5.37.84-8a15.77,15.77,0,0,0,.48-3.48,45.75,45.75,0,0,1,.37-5.83,84.53,84.53,0,0,0-.23-12.83,83.17,83.17,0,0,0-6.12-24.33,48.7,48.7,0,0,1,11.74,15.91,24,24,0,0,1,6.51-11.85,19.15,19.15,0,0,0,.57,3.69,21.07,21.07,0,0,0,2,4.54,24.31,24.31,0,0,0,2.18,2.89,23.69,23.69,0,0,0,5.53,4.64c-.41-.25,1.85-3.53,2.2-3.92a4.14,4.14,0,0,0,.92-1.48,29.11,29.11,0,0,0,1.36-13.26l6,16.91a30.28,30.28,0,0,1,8.32-16.3,33.93,33.93,0,0,0,1.11,12.07l7.91-6.67c4.42-3.72,8.88-7.5,12.28-12.17a36.17,36.17,0,0,0,6.52-15.95,52.54,52.54,0,0,1,.92,34q5.87-9.18,11.11-18.74L204,197.13c.28,1.62.81,3.55,2.39,4a9.65,9.65,0,0,1,3.68-6.38,23.52,23.52,0,0,0,1.18,12,32.36,32.36,0,0,1,16.13-10l-1.51,8.69c-.61,3.51-1.22,7.08-.71,10.6a17,17,0,0,0,3.36,7.93c.94,1.22,2.09,2.37,2.48,3.86.75,2.92-1.63,5.68-4,7.48a35.43,35.43,0,0,1-21.49,7c-2.3,0-4.65-.29-6.88.3-1.83.48-4.55,2.06-4.27,4.29a23.07,23.07,0,0,1,.48,2.76,80.87,80.87,0,0,1-.91,10.06c-.47,3.93-1.05,7.85-1.63,11.77" transform="translate(-22.57 -27.77)"/></g><g id="Calque_2-2" data-name="Calque 2"><g id="Calque_2-2-2" data-name="Calque 2-2"><g class="cls-10"><path class="cls-11" d="M402.76,151.65H390.57V140.53q0-2.42-.81-3.15a5,5,0,0,0-3.21-.74h-6.84a4.94,4.94,0,0,0-3.21.74q-.81.74-.81,3.15v57.22c0,1.6.27,2.66.81,3.15s1.6.73,3.21.73h6.84a5,5,0,0,0,3.21-.73c.54-.49.81-1.55.81-3.15v-20.5h-6.7v-9.39h18.89v31.36q0,11.92-12.46,11.93H376q-12.46,0-12.46-11.93v-60.3q0-11.79,12.46-11.79H390.3q12.45,0,12.46,11.79Z" transform="translate(-22.57 -27.77)"/><path class="cls-11" d="M427.41,177.11V211H415.35V127.13h27.47q12.46,0,12.47,11.79v26.26q0,10.19-9,11.66L459.57,211h-13L434,177.11Zm0-40.2v30.55h11.8a5,5,0,0,0,3.21-.73c.54-.49.81-1.55.81-3.15V140.8q0-2.42-.81-3.15a5,5,0,0,0-3.21-.74Z" transform="translate(-22.57 -27.77)"/><path class="cls-11" d="M469.49,127.13h12.06V211H469.49Z" transform="translate(-22.57 -27.77)"/><path class="cls-11" d="M508.62,201.23h20.77V211H496.56V127.13h12.06Z" transform="translate(-22.57 -27.77)"/><path class="cls-11" d="M549,201.23h20.77V211H536.89V127.13H549Z" transform="translate(-22.57 -27.77)"/><path class="cls-11" d="M589.42,201.23h24.25V211H577.22V127.13h35.51v9.78H589.42v25.86h19.29v9.78H589.42Z" transform="translate(-22.57 -27.77)"/><path class="cls-11" d="M623.45,127.13h29.21q12.47,0,12.47,11.79v60.3q0,11.79-12.47,11.79H623.45Zm29.48,70.48V140.53c0-1.61-.27-2.66-.8-3.15a5,5,0,0,0-3.22-.74H635.65V201.5h13.26a5,5,0,0,0,3.22-.74C652.66,200.27,652.93,199.22,652.93,197.61Z" transform="translate(-22.57 -27.77)"/></g></g></g><g class="cls-12"><path class="cls-6" d="M678.91,181.15a35,35,0,0,1-5.66-5.36,39.27,39.27,0,0,1-7.42-13.66c-2.91-9.34-2.49-19.84,2-28.63,3.78-7.43,9.91-13.46,13.66-20.9,3.86-7.64,5-16.31,7.38-24.54,8.44-29.34,34-53,63.94-59.19,11.8-2.43,26.06-1.35,33.05,8.46,2.22,3.12,3.52,6.92,6.29,9.56,6.41,6.12,16.76,3.31,25.27.83a155.18,155.18,0,0,1,61.26-5.07c8.24,1,16.81,2.81,23.07,8.24,8.71,7.55,10.89,20.84,7.32,31.8A43,43,0,0,1,902.56,95a16.19,16.19,0,0,1-3.94,4,8.64,8.64,0,0,0-3.12,3.57c-6,11.76-6.09,25.4-10.25,37.74-.13.39-.27.78-.41,1.16a31.45,31.45,0,0,1-3.69,7.35c-1.37,1.94-3.32,3.58-3.56,6.08a29.87,29.87,0,0,0,.2,4.43,18.77,18.77,0,0,1-6.14,14.79,18.82,18.82,0,0,0-11.83-1.72,19.48,19.48,0,0,0-6.52,2.35,17.39,17.39,0,0,0-2.81,2,2.82,2.82,0,0,0-.8,1.13,6.42,6.42,0,0,1-3.26,3.23,7.87,7.87,0,0,1-4.54.14c-2.75-.57-5.38-1.6-8.14-2.13a14.26,14.26,0,0,0-4.12-.25,4.13,4.13,0,0,0-1.36.23,7.69,7.69,0,0,0-1.19.94c-.69.54-1.39,1.07-2.09,1.6-1.28,1-2.59,1.9-3.92,2.8a60.21,60.21,0,0,1-7.06,4.16c-1.22.6-2.49,1.1-3.74,1.65a5.13,5.13,0,0,0-1.36.93,77.43,77.43,0,0,1-8.65,5.77c-7,4.26-14.69,8-22.89,8.17-12.44.31-24.82-7.5-36.75-4-3.93,1.16-7.43,3.49-11.35,4.69a13,13,0,0,1-8,.06c-1.32-.47-2.11-1.42-3.27-2.08s-2.88-1.13-4.23-1.73a164,164,0,0,1-18.09-9.51A194.52,194.52,0,0,1,678.91,181.15Z" transform="translate(-22.57 -27.77)"/><path class="cls-7" d="M750.79,264.67c-51.93-8.74-98.43-44.93-119.63-93.14a156.54,156.54,0,0,0,26.9,15.84c-1-.44-2-3.2-2.48-4.12a40,40,0,0,1-2.23-5.27,57,57,0,0,1-1.76-6.55c-.35-1.59-.66-3.18-.9-4.79a71.57,71.57,0,0,1-.81-9.7,73.9,73.9,0,0,1,2.26-19.3A71.7,71.7,0,0,1,659.19,120a36.82,36.82,0,0,0,10.69,25.19A17.06,17.06,0,0,1,675,131.22a55.61,55.61,0,0,0,6.16,13.49,34.27,34.27,0,0,1,10.59-15.34,9.26,9.26,0,0,0,.41,2.16c.18.84.4,1.67.6,2.5a4.87,4.87,0,0,1,.15.93,5.63,5.63,0,0,0,.09,1.36,28.72,28.72,0,0,0,1.35,3.7,48.24,48.24,0,0,0,11.15,16.44c.91-4,2.47-7.92,3.25-12s.68-8.53-1.51-12.05c3,5.85,9.3,9.83,10.91,16.18a40.77,40.77,0,0,1,23.31-14.25c-.63.13-1.14,1.76-1.61,2.31a17.27,17.27,0,0,0-1.2,1.51,19.85,19.85,0,0,0-1.93,3.34,20.37,20.37,0,0,0-1.84,7.47c0,.54,0,1.08,0,1.62a20.21,20.21,0,0,0,2.28,8.6,20.42,20.42,0,0,0,2.48,3.72c.43.52,1,1.46,1.72,1.68.51.16.9-.26,1.25-.58s1-.83,1.48-1.24a53.66,53.66,0,0,0,14-17.74,52.74,52.74,0,0,0,2.75-6.75,74.23,74.23,0,0,1,1.38,10.28A33.92,33.92,0,0,1,775.53,137,78.17,78.17,0,0,0,778,151.84a19,19,0,0,0,7.81-14.33c2.26,6,4.56,12.12,4.4,18.49a39.49,39.49,0,0,1,14.62-13.23,23.14,23.14,0,0,0,1,14.12c4.83-5.55,9-12.63,7.78-19.89,1.66,5.54.83,11.49,0,17.21a68.43,68.43,0,0,1,9.33-10.92,32.7,32.7,0,0,0-2.23,12.41c0-.2,1.18-1,1.36-1.23.46-.44.9-.9,1.33-1.38a26.51,26.51,0,0,0,2.32-3,25.42,25.42,0,0,0,1.85-3.35c.52-1.12.8-2.39,1.38-3.46a4.15,4.15,0,0,1,.91-1.05,28,28,0,0,0,3.77-5.24l5.34,18a11,11,0,0,1,.91-1.19,3.71,3.71,0,0,0,.47-.82c.3-.59.57-1.19.82-1.8a22,22,0,0,0,1.13-3.79,19.51,19.51,0,0,0,0-7.8,16.25,16.25,0,0,0-.85-2.81c2.51,4.48,5.08,9.22,5.14,14.36A31.91,31.91,0,0,1,861,130.83c-1.2,2.26-1.33,4.9-1.43,7.46l-.29,6.76a48.71,48.71,0,0,0,4.64-6.42,16.41,16.41,0,0,0,2.37-7.48c1.1,3.1.84,6.51.38,9.76,0-.11.19-.29.25-.39l.3-.46.6-.88c.4-.59.81-1.17,1.24-1.74.84-1.14,1.72-2.26,2.63-3.34s1.87-2.14,2.85-3.17a11.46,11.46,0,0,0,1.17-1.34,1.6,1.6,0,0,1,.25-.27c.2-.17.27-.1.45.06a11.4,11.4,0,0,1,1.52,1.87,31.77,31.77,0,0,1,2.18,3.21,23.28,23.28,0,0,1,2.45,6.54c.46,2.17.2,4.45.71,6.59,1.55,6.49-.56,13.93-2.82,20-3.51,9.44-9.16,17.92-14.77,26.29" transform="translate(-22.57 -27.77)"/><path class="cls-8" d="M726.63,287.5a28.7,28.7,0,0,1-5.89-1A27.12,27.12,0,0,1,706.37,277a27.71,27.71,0,0,0-4.62-5.05,30,30,0,0,1-3.07-3l-2-2.17c-.29-.31-1.69-1.46-1.69-1.84-2.33-2.52-4.9-4.95-7-7.68a14.41,14.41,0,0,1-2.21-5.06,23.57,23.57,0,0,0-1.3-3.36A136.33,136.33,0,0,1,676.12,227c-1-3.66-2.21-7-3-10.72a75.37,75.37,0,0,0-2.47-8.76,78.77,78.77,0,0,0-7.88-16.39,77.61,77.61,0,0,0-15.17-17.6l12.77,7.1c5,2.79,10.38,5.91,12.82,11.13a16.75,16.75,0,0,1,.15-5.1c.14-.71.29-1.41.45-2.11.32-1.4.67-2.79,1.06-4.18.79-2.76,1.72-5.49,2.78-8.16a81.81,81.81,0,0,1,3.55-7.67,32.15,32.15,0,0,0,3.47,16.23,23.42,23.42,0,0,0,.77-15.6l7.71,14.78c.43.81.95,1.71,1.85,1.94a3.17,3.17,0,0,0,2.39-.72A35.33,35.33,0,0,0,708,170.35a17.87,17.87,0,0,1,1.78-3c2.09-2.17,3.19-5.12,4.78-7.66a64.89,64.89,0,0,1,4-5.64,11.71,11.71,0,0,0,1,2c.42.8.85,1.6,1.28,2.4s1,1.65,1.39,2.51a12.93,12.93,0,0,1,.46,1.23,8.26,8.26,0,0,0,1.75,2.53,33.92,33.92,0,0,1,4.31,6.56,33.58,33.58,0,0,1,3.13,9.52,41.21,41.21,0,0,1,1.56-17.2,31.89,31.89,0,0,0,4.34,12.2,13.34,13.34,0,0,0-.45-13.34,22.63,22.63,0,0,1,8.83,14.34c.22,1.29.42,2.76,1.49,3.51a3,3,0,0,0,3.3-.15c1.79-1.15,2.59-3.24,3.61-5,.71-1.24,1.4-2.5,2-3.79a22.93,22.93,0,0,0,2.38-8,14.15,14.15,0,0,0-.18-3.79l4.06,20.68c1.61-7.4,7.71-12.86,13.48-17.77-1.55,1.12-2.1,3.16-2.44,5.05a60.57,60.57,0,0,0-.84,15.56c0-.17.29-.58.37-.74s.24-.56.35-.84a13.09,13.09,0,0,0,.49-1.76,12.14,12.14,0,0,0,.23-1.8c0-.6-.07-1.23,0-1.82,0-.38.23-.74.29-1.12a16.32,16.32,0,0,0,.15-2.09,32,32,0,0,0-.09-4.15c1.38,1.52,3.2,2.63,4.64,4.13a26,26,0,0,1,3.48,4.54A28.35,28.35,0,0,1,790,162.06a14.38,14.38,0,0,0,.38,10.71l2.44-3.94a36.7,36.7,0,0,0-.38,8.57,7,7,0,0,1,4.9-4c1.39-.21,2.79.15,4.18,0,1.22-.16,2.42-.36,3.66-.46a26.31,26.31,0,0,0,3.32,0c1.65-.37,2.71-2.47,3.39-3.89a17.08,17.08,0,0,0,1.32-11.2l0-.07c1.76,3.87,3.53,7.83,4,12.05a32.1,32.1,0,0,1,5.28-10.08,20.63,20.63,0,0,0-1.41,6.86,36.76,36.76,0,0,0,.22,7.19,40.56,40.56,0,0,1,2.69-5.35,1.18,1.18,0,0,1,.39-.41c.41-.19.87.18,1.09.58s.41.87.82,1.06a1.11,1.11,0,0,0,1.25-.4A2.89,2.89,0,0,0,828,168a18.91,18.91,0,0,0,.27-4.87,6.51,6.51,0,0,0-.31-1.95,9.86,9.86,0,0,0-.91-2.23,90.81,90.81,0,0,1,5.86,9.38c1.63,3,2.83,6.16,4.36,9.18.33-3.09,1-6,.85-9.13a32.37,32.37,0,0,0-1.82-9.34,57.39,57.39,0,0,1,13.95,18.56,22.34,22.34,0,0,1,2.24-11c.66,4.11,3,7.73,5.33,11.2l4.78,7.21a3.78,3.78,0,0,1-.46-1.53,20.53,20.53,0,0,1-.13-2.06,8.3,8.3,0,0,1,0-1.65,8.87,8.87,0,0,0,0-1.71,19.52,19.52,0,0,1,.29-4.11,22.52,22.52,0,0,1,2.73-7.48c2.8-4.86,7.16-8.6,11.58-12.06l.47,2.28a6,6,0,0,1,.3,2,8,8,0,0,0,.15,1.94q.13,1.05.3,2.1a53,53,0,0,0,2.06,8.23,50,50,0,0,0,3.38,7.77c0,.07.07.13.1.19,1.18,2.17,3.16,4.56,5.59,4.07a6.18,6.18,0,0,0,2.31-1.21l9.93-7.14a52.15,52.15,0,0,0,3.62,37.84c1.56,3.06,3.48,6.11,3.67,9.54.29,5.31-3.64,9.94-7.94,13.06-14.46,10.49-33.74,10.27-51.11,14.46A98.66,98.66,0,0,0,818.39,263c-7,4.65-13.53,10.23-21.1,14s-16.77,5.4-24.42,1.81c-4-1.88-7.87-5.22-12.28-4.57-2.85.42-5.15,2.46-7.42,4.24C745.63,284.28,736.17,288.1,726.63,287.5Z" transform="translate(-22.57 -27.77)"/><path class="cls-9" d="M752.73,358c-9-1.1-17.5-4.49-25.88-7.9-8.54-3.48-17.31-7.19-23.75-13.79-8.93-9.17-12-22.5-13.39-35.23a162,162,0,0,1-.68-27.15q.39-6.51,1.36-13c.28-1.83.9-3.75.77-5.61-.21-3.11.41-6.31.59-9.43a115.89,115.89,0,0,0-.32-20.15,15,15,0,0,0-.67-2.38,13.88,13.88,0,0,0-1.2-3.3,13.56,13.56,0,0,0-2.06-2.71c-1.84-1.9-4-3.43-5.88-5.33a25.13,25.13,0,0,1-6.46-15.4,48.5,48.5,0,0,1,2-16.82c.67,6.7,1.46,13.73,5.34,19.24,1.75,2.48,4.13,4.68,4.81,7.63a40.47,40.47,0,0,0-1.39-8.48,40.05,40.05,0,0,0-1.35-4.05c-1.07-2.74-2-5.52-3.11-8.25a78.47,78.47,0,0,1,19,25.69A38.72,38.72,0,0,1,711,192.47c.33,2,.22,4,.92,6a33.7,33.7,0,0,0,3.19,7.33,38,38,0,0,0,3.52,4.66,38.41,38.41,0,0,0,8.92,7.5c-.65-.4,3-5.69,3.56-6.32a7.08,7.08,0,0,0,1.49-2.39c2.5-6.63,3-14.45,2.2-21.42l9.61,27.3a49,49,0,0,1,13.45-26.32,54.34,54.34,0,0,0,1.79,19.49l12.76-10.76q2.08-1.75,4.14-3.52a19.17,19.17,0,0,0,2.13-1.89c.28-.33.47-.71.78-1,.88-.87,1.89-1.57,2.73-2.5a19.77,19.77,0,0,0,3.83-6.26,18.64,18.64,0,0,0,1.1-4.65,65.26,65.26,0,0,1-.13,24,88.72,88.72,0,0,1,11.21-14.74,23,23,0,0,0,.14,12.65,23.33,23.33,0,0,0,9.59-18.68A23.42,23.42,0,0,1,810.62,192a47.28,47.28,0,0,1,7.43-14.89,31.68,31.68,0,0,0-.31,13.43,24.07,24.07,0,0,0,2.34-9.86c.25,1.13.49,2.26.7,3.39a12.84,12.84,0,0,1,.37,2.37c0,.3-.09.58-.08.88,0,.93.14,1.85.1,2.79a19.31,19.31,0,0,1-1,5.48,14.58,14.58,0,0,0,5.31-8.86c-.58,5.11,2.27,10.08,2.09,15.22.1-.41,2.18-1.2,2.59-1.57a6.75,6.75,0,0,0,.55-.65c.57-.67,1.21-1.27,1.8-1.91a34.35,34.35,0,0,0,7.93-14.69,30.31,30.31,0,0,1,.28,15.25,26.7,26.7,0,0,1,11.5-12.75,25.9,25.9,0,0,0-4.34,21.52,20.83,20.83,0,0,0,10.5-16.93,18.63,18.63,0,0,1,.23,16.55,38.75,38.75,0,0,1,11.05-10.6,15.8,15.8,0,0,0-2.19,8.95,11.87,11.87,0,0,0,6.67-7,16,16,0,0,1-4.47,16.6c-3.39,3-8.2,4.7-9.23,9.6a15.23,15.23,0,0,0-.47,5.2,27.33,27.33,0,0,0,5.47,12.21c1.52,2,3.37,3.83,4,6.25,1.22,4.7-2.63,9.16-6.53,12.07a57,57,0,0,1-34.69,11.25c-3.72-.05-7.51-.46-11.11.49-2.95.77-7.36,3.32-6.9,6.93a35.07,35.07,0,0,1,.77,4.45c0,5.38-.82,10.92-1.46,16.26-.77,6.34-1.7,12.67-2.63,19" transform="translate(-22.57 -27.77)"/></g></g></g></svg>